# xmcd CD database file
#
# Track frame offsets:
#	150
#	20287
#	37287
#	56752
#	76147
#	96310
#	117540
#	137980
#	156072
#	177000
#	188937
#	202682
#	216335
#	238815
#
# Disc length: 3470 seconds
#
# Revision: 8
# Processed by: cddbd v1.5PL3 Copyright (c) Steve Scherf et al.
# Submitted via: CDex 1.50beta8
#
DISCID=c60d8c0e
DTITLE=上田正樹 - 上田正樹 ベスト・セレクション
DYEAR=1993
DGENRE=JPop
TTITLE0=悲しい色やね
TTITLE1=人知れず恋
TTITLE2=TAKAKO
TTITLE3=レフト・アローン
TTITLE4=ミス・ユー・ベイビー
TTITLE5=たぶんボサノヴァ
TTITLE6=思いでが降る夜
TTITLE7=男が女を愛する時
TTITLE8=我が心のジョージア
TTITLE9=ユー・アー・ソー・ビューティフル
TTITLE10=マイ・ガール
TTITLE11=マリー
TTITLE12=スタンド・バイ・ミー
TTITLE13=愛の翳り
EXTD=YEAR: 1993
EXTT0=
EXTT1=
EXTT2=
EXTT3=
EXTT4=
EXTT5=
EXTT6=
EXTT7=
EXTT8=bonus track
EXTT9=bonus track
EXTT10=precious track
EXTT11=
EXTT12=
EXTT13=
PLAYORDER=
